<svg xmlns="http://www.w3.org/2000/svg" viewBox="0 0 64 64" role="img" aria-label="Svehla a Blasko">
  <defs>
    <linearGradient id="bg" x1="0" y1="0" x2="1" y2="1">
      <stop offset="0" stop-color="#0f172a" />
      <stop offset="1" stop-color="#334155" />
    </linearGradient>
  </defs>
  <rect width="64" height="64" rx="14" fill="url(#bg)"/>
  <circle cx="32" cy="32" r="20" fill="none" stroke="#b8743a" stroke-width="3.5"/>
  <path d="M25 25.5c1.1-1.2 2.8-1.9 4.9-1.9 2.7 0 4.9 1.2 6.1 3.2l-3 1.4c-.7-1-1.7-1.5-3.2-1.5-1.4 0-2.4.7-2.4 1.8 0 1.2 1 1.6 3 2l1.6.3c3 .6 4.7 2.2 4.7 4.8 0 3.1-2.6 5.1-6.7 5.1-3.4 0-5.9-1.3-7-3.8l3-1.2c.8 1.3 2.2 2 4 2 1.8 0 2.9-.7 2.9-1.9 0-1.1-.8-1.6-2.8-2l-1.6-.3c-3.4-.7-4.9-2.3-4.9-5 0-1 .3-1.9 1-2.8z" fill="#f8fafc"/>
</svg>
