<?xml version="1.0" encoding="UTF-8"?>
<svg clip-rule="evenodd" fill-rule="evenodd" stroke-linejoin="round" stroke-miterlimit="2" version="1.1" viewBox="0 0 2230 1698" xml:space="preserve" xmlns="http://www.w3.org/2000/svg"><path d="m1086.9 804.55c0.087-155.56-126.82-282.46-282.42-282.46-135.14-0-248.65 95.731-276.14 222.85h-66.426v119.72l66.487-0.021c27.545 126.43 140.19 221.72 274.54 222.46l0.26 521.16c-0.677-39.784-31.564-73.704-72.339-77.462-40.637-3.74-77.174 23.766-85.428 62.584 7.133-39.096-16.447-78.383-55.683-90.024-39.111-11.59-80.367 8.255-96.097 44.75 14.859-36.86-0.37-80.022-36.499-99.182-36.015-19.086-80.412-7.789-103.17 24.817 21.833-33.307 15.42-78.592-16.209-104.42-31.528-25.741-77.308-23.333-105.64 4.061 28.404-28.529 31.092-74.189 5.177-105.69-25.83-31.379-71.192-37.934-104.84-16.55 33.058-22.382 44.707-66.631 25.524-102.58-19.118-35.803-62.303-51.077-99.518-36.613 36.877-15.323 57.151-56.4 45.556-95.412-11.57-38.879-50.82-62.371-90.176-55.61 39.195-7.914 67.207-44.221 63.541-84.742-3.642-40.355-37.493-71.066-77.361-72.052 39.868-0.985 73.719-31.696 77.361-72.054 3.666-40.52-24.346-76.827-63.541-84.739 39.356 6.761 78.606-16.73 90.176-55.61 11.595-39.015-8.679-80.089-45.556-95.416 37.215 14.465 80.4-0.807 99.518-36.613 19.183-35.946 7.534-80.194-25.524-102.57 33.649 21.379 79.011 14.822 104.84-16.559 25.915-31.495 23.227-77.158-5.177-105.69 28.327 27.393 74.107 29.802 105.64 4.063 31.629-25.83 38.042-71.118 16.209-104.43 22.758 32.607 67.155 43.906 103.17 24.817 36.129-19.16 51.358-62.322 36.499-99.18 15.73 36.497 56.986 56.339 96.097 44.748 39.236-11.638 62.816-50.927 55.683-90.02 8.254 38.813 44.791 66.321 85.428 62.58 40.775-3.754 71.662-37.677 72.339-77.461 0.677 39.784 31.564 73.707 72.337 77.461 40.637 3.741 77.174-23.767 85.432-62.58-7.136 39.093 16.443 78.382 55.681 90.02 39.112 11.591 80.368-8.251 96.097-44.748-14.857 36.858 0.37 80.02 36.5 99.18 36.016 19.089 80.409 7.79 103.17-24.817-21.832 33.308-15.419 78.596 16.211 104.43 31.527 25.739 77.308 23.33 105.63-4.063-28.403 28.529-31.091 74.192-5.172 105.69 25.825 31.381 71.184 37.938 104.84 16.559-33.063 22.378-44.708 66.626-25.525 102.57 19.114 35.806 62.3 51.078 99.518 36.613-36.878 15.327-57.153 56.401-45.558 95.416 11.569 38.88 50.819 62.371 90.178 55.61-39.2 7.912-67.209 44.219-63.544 84.739 3.644 40.358 37.493 71.069 77.362 72.054l-483 0.379c0-135.35 110.66-245.7 245.97-245.9v-36.523c-155.6-0-282.51 126.9-282.43 282.46v-1e-3z" fill="#e30016"/><g transform="matrix(4.1667 0 0 4.1667 -777.36 -3391.6)"><g transform="matrix(.85891 -.51212 .51212 .85891 -422.03 283.11)"><path d="m316.2 900.2v1.584q0 1.188-0.468 2.268-0.432 1.044-1.224 1.872t-1.872 1.332q-1.044 0.468-2.268 0.468-1.044 0-2.124-0.288t-1.944-1.008-1.44-1.836q-0.54-1.152-0.54-2.916v-14.112q0-1.26 0.432-2.34t1.224-1.872 1.872-1.224q1.116-0.468 2.448-0.468 2.592 0 4.212 1.692 0.792 0.828 1.224 1.98 0.468 1.116 0.468 2.448v1.44h-3.672v-1.224q0-1.08-0.612-1.872t-1.656-0.792q-1.368 0-1.836 0.864-0.432 0.828-0.432 2.124v13.104q0 1.116 0.468 1.872 0.504 0.756 1.764 0.756 0.36 0 0.756-0.108 0.432-0.144 0.792-0.432 0.324-0.288 0.54-0.792t0.216-1.26v-1.26z" fill="#fffcfc" aria-label="C"/></g><g transform="matrix(.91108 -.41224 .41224 .91108 -342.95 210.04)"><path d="m316.96 899.96v-25.632h3.528l5.544 15.444h0.072v-15.444h3.672v25.632h-3.456l-5.616-15.408h-0.072v15.408z" fill="#fffcfc" aria-label="N"/></g><g transform="matrix(.95211 -.30577 .30577 .95211 -257.36 143.69)"><path d="m343.38 886.08v1.584q0 1.188-0.468 2.268-0.432 1.044-1.224 1.872t-1.872 1.332q-1.044 0.468-2.268 0.468-1.044 0-2.124-0.288t-1.944-1.008-1.44-1.836q-0.54-1.152-0.54-2.916v-14.112q0-1.26 0.432-2.34t1.224-1.872 1.872-1.224q1.116-0.468 2.448-0.468 2.592 0 4.212 1.692 0.792 0.828 1.224 1.98 0.468 1.116 0.468 2.448v1.44h-3.672v-1.224q0-1.08-0.612-1.872t-1.656-0.792q-1.368 0-1.836 0.864-0.432 0.828-0.432 2.124v13.104q0 1.116 0.468 1.872 0.504 0.756 1.764 0.756 0.36 0 0.756-0.108 0.432-0.144 0.792-0.432 0.324-0.288 0.54-0.792t0.216-1.26v-1.26z" fill="#fffcfc" aria-label="C"/></g><g transform="matrix(.98825 -.15284 .15284 .98825 -131.5 63.984)"><path d="m351.94 867.75q0-1.548 0.54-2.736t1.44-1.98q0.864-0.756 1.944-1.152 1.116-0.396 2.232-0.396t2.196 0.396q1.116 0.396 2.016 1.152 0.864 0.792 1.404 1.98t0.54 2.736v13.536q0 1.62-0.54 2.772t-1.404 1.908q-0.9 0.792-2.016 1.188-1.08 0.396-2.196 0.396t-2.232-0.396q-1.08-0.396-1.944-1.188-0.9-0.756-1.44-1.908t-0.54-2.772zm3.672 13.536q0 1.332 0.72 1.98 0.756 0.612 1.764 0.612t1.728-0.612q0.756-0.648 0.756-1.98v-13.536q0-1.332-0.756-1.944-0.72-0.648-1.728-0.648t-1.764 0.648q-0.72 0.612-0.72 1.944z" fill="#fffcfc" aria-label="O"/></g><g transform="matrix(.99908 -.042884 .042884 .99908 -37.616 16.494)"><path d="m367.35 884.99v-25.632h5.364q1.764 0 2.988 0.54 1.26 0.54 2.052 1.44t1.116 2.088q0.36 1.152 0.36 2.412v0.936q0 1.044-0.18 1.764-0.144 0.72-0.468 1.26-0.612 1.008-1.872 1.728 1.296 0.612 1.908 1.8t0.612 3.24v1.44q0 3.384-1.656 5.184-1.62 1.8-5.22 1.8zm3.672-11.88v8.208h1.584q1.116 0 1.728-0.324 0.648-0.324 0.972-0.9t0.396-1.368 0.072-1.728q0-0.972-0.108-1.692t-0.432-1.224q-0.36-0.504-0.972-0.72-0.612-0.252-1.62-0.252zm0-10.296v7.056h1.656q1.836 0 2.448-0.9 0.648-0.936 0.648-2.7 0-1.728-0.72-2.592-0.684-0.864-2.52-0.864z" fill="#fffcfc" aria-label="B"/></g><g transform="matrix(.99751 .070525 -.070525 .99751 63.314 -24.664)"><path d="m386.34 862.12v7.992h2.088q0.972 0 1.548-0.252 0.576-0.288 0.9-0.792 0.288-0.504 0.396-1.224 0.108-0.756 0.108-1.728t-0.108-1.692q-0.108-0.756-0.432-1.296-0.684-1.008-2.592-1.008zm-3.672 22.176v-25.632h5.904q6.48 0 6.48 7.524 0 2.268-0.72 3.852-0.684 1.584-2.448 2.556l3.96 11.7h-3.888l-3.42-10.944h-2.196v10.944z" fill="#fffcfc" aria-label="R"/></g><g transform="matrix(.98487 .17331 -.17331 .98487 159.44 -55.275)"><path d="m405.39 876.4-1.8-9.288h-0.072l-1.8 9.288zm-9.072 8.964 5.724-25.632h3.06l5.724 25.632h-3.672l-1.08-5.508h-5.004l-1.08 5.508zm4.932-26.784 3.24-5.076h3.888l-4.752 5.076z" fill="#fffcfc" aria-label="Á"/></g><g transform="matrix(.95999 .28005 -.28005 .95999 265.08 -79.488)"><path d="m412.43 887.89v-25.632h5.364q1.764 0 2.988 0.54 1.26 0.54 2.052 1.44t1.116 2.088q0.36 1.152 0.36 2.412v0.936q0 1.044-0.18 1.764-0.144 0.72-0.468 1.26-0.612 1.008-1.872 1.728 1.296 0.612 1.908 1.8t0.612 3.24v1.44q0 3.384-1.656 5.184-1.62 1.8-5.22 1.8zm3.672-11.88v8.208h1.584q1.116 0 1.728-0.324 0.648-0.324 0.972-0.9t0.396-1.368 0.072-1.728q0-0.972-0.108-1.692t-0.432-1.224q-0.36-0.504-0.972-0.72-0.612-0.252-1.62-0.252zm0-10.296v7.056h1.656q1.836 0 2.448-0.9 0.648-0.936 0.648-2.7 0-1.728-0.72-2.592-0.684-0.864-2.52-0.864z" fill="#fffcfc" aria-label="B"/></g><g transform="matrix(.92447 .38126 -.38126 .92447 372.21 -94.667)"><path d="m434.17 883.1-1.8-9.288h-0.072l-1.8 9.288zm-9.072 8.964 5.724-25.632h3.06l5.724 25.632h-3.672l-1.08-5.508h-5.004l-1.08 5.508z" fill="#fffcfc" aria-label="A"/></g><g transform="matrix(.87527 .48363 -.48363 .87527 488.83 -100.17)"><path d="m440.2 897.63v-25.632h3.528l5.544 15.444h0.072v-15.444h3.672v25.632h-3.456l-5.616-15.408h-0.072v15.408z" fill="#fffcfc" aria-label="N"/></g><g transform="matrix(.83009 .55762 -.55762 .83009 581.81 -98.468)"><path d="m454.32 905.5v-25.632h3.672v25.632z" fill="#fffcfc" aria-label="I"/></g><g transform="matrix(.78165 .62372 -.62372 .78165 667.44 -87.515)"><path d="m460.44 909.51v-25.632h10.944v3.456h-7.272v7.524h6.336v3.456h-6.336v7.524h7.272v3.672z" fill="#fffcfc" aria-label="E"/></g></g><path d="m1086.9 804.55c0.137-155.56-126.77-282.46-282.38-282.46v36.523c135.32 0.2 245.97 110.55 245.97 245.9l36.402 0.042z" fill="#1b1918"/><path d="m1176.7 935.39h-53.55v-12.075q0-18.375-8.925-31.5-8.4-13.65-28.875-13.65-11.025 0-17.85 4.2t-11.025 10.5q-4.2 6.825-5.775 15.75-1.575 8.4-1.575 17.85 0 11.025 0.525 18.375 1.05 7.35 4.2 13.125t8.925 9.975q6.3 4.2 16.8 8.4l40.95 16.275q17.85 6.825 28.875 16.275 11.025 8.925 17.325 21 5.775 12.6 7.875 28.875 2.1 15.75 2.1 36.225 0 23.625-4.725 44.1-4.725 19.95-15.225 34.125-11.025 14.7-28.875 23.1t-43.575 8.4q-19.425 0-36.225-6.825t-28.875-18.9-19.425-27.825q-6.825-16.275-6.825-35.175v-19.95h53.55v16.8q0 14.7 8.4 26.775 8.925 11.55 29.4 11.55 13.65 0 21-3.675 7.875-4.2 12.075-11.55t4.725-17.325q1.05-10.5 1.05-23.1 0-14.7-1.05-24.15t-4.2-15.225q-3.675-5.775-9.975-9.45-5.775-3.675-15.75-7.875l-38.325-15.75q-34.65-14.175-46.725-37.275-11.55-23.625-11.55-58.8 0-21 5.775-39.9 5.775-18.9 17.325-32.55 11.025-13.65 27.825-21.525 17.325-8.4 40.95-8.4 19.95 0 36.225 7.35 16.8 7.35 28.875 19.425 24.15 25.2 24.15 57.75zm221.55-107.62-76.65 373.8h-47.25l-76.125-373.8h56.7l42.525 260.92h1.05l43.05-260.92zm32.025 373.8v-373.8h159.6v50.4h-106.05v109.72h92.4v50.4h-92.4v109.72h106.05v53.55zm194.25 0v-373.8h53.55v160.12h66.15v-160.12h53.55v373.8h-53.55v-166.42h-66.15v166.42zm223.65 0v-373.8h53.55v320.25h106.05v53.55zm302.4-130.72-26.25-135.45h-1.05l-26.25 135.45zm-132.3 130.72 83.475-373.8h44.625l83.475 373.8h-53.55l-15.75-80.325h-72.975l-15.75 80.325z" aria-label="SVEHLA"/><g aria-label="BLAŠKO"><path d="m986.29 1694.3v-373.8h78.225q25.725 0 43.575 7.875 18.375 7.875 29.925 21t16.275 30.45q5.25 16.8 5.25 35.175v13.65q0 15.225-2.625 25.725-2.1 10.5-6.825 18.375-8.925 14.7-27.3 25.2 18.9 8.925 27.825 26.25t8.925 47.25v21q0 49.35-24.15 75.6-23.625 26.25-76.125 26.25zm53.55-173.25v119.7h23.1q16.275 0 25.2-4.725 9.45-4.725 14.175-13.125t5.775-19.95 1.05-25.2q0-14.175-1.575-24.675t-6.3-17.85q-5.25-7.35-14.175-10.5-8.925-3.675-23.625-3.675zm0-150.15v102.9h24.15q26.775 0 35.7-13.125 9.45-13.65 9.45-39.375 0-25.2-10.5-37.8-9.975-12.6-36.75-12.6zm170.1 323.4v-373.8h53.55v320.25h106.05v53.55zm302.4-130.72-26.25-135.45h-1.05l-26.25 135.45zm-132.3 130.72 83.475-373.8h44.625l83.475 373.8h-53.55l-15.75-80.325h-72.975l-15.75 80.325zm411.07-266.18h-53.55v-12.075q0-18.375-8.925-31.5-8.4-13.65-28.875-13.65-11.025 0-17.85 4.2t-11.025 10.5q-4.2 6.825-5.775 15.75-1.575 8.4-1.575 17.85 0 11.025 0.525 18.375 1.05 7.35 4.2 13.125t8.925 9.975q6.3 4.2 16.8 8.4l40.95 16.275q17.85 6.825 28.875 16.275 11.025 8.925 17.325 21 5.775 12.6 7.875 28.875 2.1 15.75 2.1 36.225 0 23.625-4.725 44.1-4.725 19.95-15.225 34.125-11.025 14.7-28.875 23.1t-43.575 8.4q-19.425 0-36.225-6.825t-28.875-18.9-19.425-27.825q-6.825-16.275-6.825-35.175v-19.95h53.55v16.8q0 14.7 8.4 26.775 8.925 11.55 29.4 11.55 13.65 0 21-3.675 7.875-4.2 12.075-11.55t4.725-17.325q1.05-10.5 1.05-23.1 0-14.7-1.05-24.15t-4.2-15.225q-3.675-5.775-9.975-9.45-5.775-3.675-15.75-7.875l-38.325-15.75q-34.65-14.175-46.725-37.275-11.55-23.625-11.55-58.8 0-21 5.775-39.9t17.325-32.55q11.025-13.65 27.825-21.525 17.325-8.4 40.95-8.4 19.95 0 36.225 7.35 16.8 7.35 28.875 19.425 24.15 25.2 24.15 57.75zm-15.75-198.45-51.45 74.025h-49.35l-51.45-74.025h40.95l35.175 49.875 35.175-49.875zm55.649 464.62v-373.8h53.55v170.62h1.05l78.225-170.62h53.55l-72.975 149.62 86.625 224.18h-56.7l-60.9-165.9-28.875 54.075v111.82z"/><path d="m2045.2 1408.7q0-22.575 7.875-39.9t21-28.875q12.6-11.025 28.35-16.8 16.275-5.775 32.55-5.775t32.025 5.775q16.275 5.775 29.4 16.8 12.6 11.55 20.475 28.875t7.875 39.9v197.4q0 23.625-7.875 40.425t-20.475 27.825q-13.125 11.55-29.4 17.325-15.75 5.775-32.025 5.775t-32.55-5.775q-15.75-5.775-28.35-17.325-13.125-11.025-21-27.825t-7.875-40.425zm53.55 197.4q0 19.425 10.5 28.875 11.025 8.925 25.725 8.925t25.2-8.925q11.025-9.45 11.025-28.875v-197.4q0-19.425-11.025-28.35-10.5-9.45-25.2-9.45t-25.725 9.45q-10.5 8.925-10.5 28.35z"/></g><rect x="1806.7" y="1229.7" width="418.04" height="42.52"/><rect x="986.29" y="1229.7" width="603.02" height="42.52"/></svg>
