<?xml version="1.0" encoding="UTF-8"?>
<svg clip-rule="evenodd" fill-rule="evenodd" stroke-linejoin="round" stroke-miterlimit="2" version="1.1" viewBox="0 0 2230 1698" xml:space="preserve" xmlns="http://www.w3.org/2000/svg"><path d="m1086.9 804.55c0.087-155.56-126.82-282.46-282.42-282.46-135.14-0-248.65 95.731-276.14 222.85h-66.426v119.72l66.487-0.021c27.545 126.43 140.19 221.72 274.54 222.46l0.26 521.16c-0.677-39.784-31.564-73.704-72.339-77.462-40.637-3.74-77.174 23.766-85.428 62.584 7.133-39.096-16.447-78.383-55.683-90.024-39.111-11.59-80.367 8.255-96.097 44.75 14.859-36.86-0.37-80.022-36.499-99.182-36.015-19.086-80.412-7.789-103.17 24.817 21.833-33.307 15.42-78.592-16.209-104.42-31.528-25.741-77.308-23.333-105.64 4.061 28.404-28.529 31.092-74.189 5.177-105.69-25.83-31.379-71.192-37.934-104.84-16.55 33.058-22.382 44.707-66.631 25.524-102.58-19.118-35.803-62.303-51.077-99.518-36.613 36.877-15.323 57.151-56.4 45.556-95.412-11.57-38.879-50.82-62.371-90.176-55.61 39.195-7.914 67.207-44.221 63.541-84.742-3.642-40.355-37.493-71.066-77.361-72.052 39.868-0.985 73.719-31.696 77.361-72.054 3.666-40.52-24.346-76.827-63.541-84.739 39.356 6.761 78.606-16.73 90.176-55.61 11.595-39.015-8.679-80.089-45.556-95.416 37.215 14.465 80.4-0.807 99.518-36.613 19.183-35.946 7.534-80.194-25.524-102.57 33.649 21.379 79.011 14.822 104.84-16.559 25.915-31.495 23.227-77.158-5.177-105.69 28.327 27.393 74.107 29.802 105.64 4.063 31.629-25.83 38.042-71.118 16.209-104.43 22.758 32.607 67.155 43.906 103.17 24.817 36.129-19.16 51.358-62.322 36.499-99.18 15.73 36.497 56.986 56.339 96.097 44.748 39.236-11.638 62.816-50.927 55.683-90.02 8.254 38.813 44.791 66.321 85.428 62.58 40.775-3.754 71.662-37.677 72.339-77.461 0.677 39.784 31.564 73.707 72.337 77.461 40.637 3.741 77.174-23.767 85.432-62.58-7.136 39.093 16.443 78.382 55.681 90.02 39.112 11.591 80.368-8.251 96.097-44.748-14.857 36.858 0.37 80.02 36.5 99.18 36.016 19.089 80.409 7.79 103.17-24.817-21.832 33.308-15.419 78.596 16.211 104.43 31.527 25.739 77.308 23.33 105.63-4.063-28.403 28.529-31.091 74.192-5.172 105.69 25.825 31.381 71.184 37.938 104.84 16.559-33.063 22.378-44.708 66.626-25.525 102.57 19.114 35.806 62.3 51.078 99.518 36.613-36.878 15.327-57.153 56.401-45.558 95.416 11.569 38.88 50.819 62.371 90.178 55.61-39.2 7.912-67.209 44.219-63.544 84.739 3.644 40.358 37.493 71.069 77.362 72.054l-483 0.379c0-135.35 110.66-245.7 245.97-245.9v-36.523c-155.6-0-282.51 126.9-282.43 282.46v-1e-3z" fill="#e30016"/><g transform="matrix(4.1667 0 0 4.1667 -777.36 -3391.6)"><g transform="matrix(.85891 -.51212 .51212 .85891 -422.03 283.11)"><text x="302.808px" y="907.506px" fill="#fffcfc" font-family="'DINCondensed-Bold', 'DIN Condensed'" font-size="36px" font-stretch="condensed" font-weight="700">C</text></g><g transform="matrix(.91108 -.41224 .41224 .91108 -342.95 210.04)"><text x="315.379px" y="899.961px" fill="#fffcfc" font-family="'DINCondensed-Bold', 'DIN Condensed'" font-size="36px" font-stretch="condensed" font-weight="700">N</text></g><g transform="matrix(.95211 -.30577 .30577 .95211 -257.36 143.69)"><text x="329.992px" y="893.386px" fill="#fffcfc" font-family="'DINCondensed-Bold', 'DIN Condensed'" font-size="36px" font-stretch="condensed" font-weight="700">C</text></g><g transform="matrix(.98825 -.15284 .15284 .98825 -131.5 63.984)"><text x="350.429px" y="887.339px" fill="#fffcfc" font-family="'DINCondensed-Bold', 'DIN Condensed'" font-size="36px" font-stretch="condensed" font-weight="700">O</text></g><g transform="matrix(.99908 -.042884 .042884 .99908 -37.616 16.494)"><text x="365.624px" y="884.993px" fill="#fffcfc" font-family="'DINCondensed-Bold', 'DIN Condensed'" font-size="36px" font-stretch="condensed" font-weight="700">B</text></g><g transform="matrix(.99751 .070525 -.070525 .99751 63.314 -24.664)"><text x="380.937px" y="884.298px" fill="#fffcfc" font-family="'DINCondensed-Bold', 'DIN Condensed'" font-size="36px" font-stretch="condensed" font-weight="700">R</text></g><g transform="matrix(.98487 .17331 -.17331 .98487 159.44 -55.275)"><text x="396.246px" y="885.363px" fill="#fffcfc" font-family="'DINCondensed-Bold', 'DIN Condensed'" font-size="36px" font-stretch="condensed" font-weight="700">Á</text></g><g transform="matrix(.95999 .28005 -.28005 .95999 265.08 -79.488)"><text x="410.702px" y="887.888px" fill="#fffcfc" font-family="'DINCondensed-Bold', 'DIN Condensed'" font-size="36px" font-stretch="condensed" font-weight="700">B</text></g><g transform="matrix(.92447 .38126 -.38126 .92447 372.21 -94.667)"><text x="425.029px" y="892.062px" fill="#fffcfc" font-family="'DINCondensed-Bold', 'DIN Condensed'" font-size="36px" font-stretch="condensed" font-weight="700">A</text></g><g transform="matrix(.87527 .48363 -.48363 .87527 488.83 -100.17)"><text x="438.619px" y="897.627px" fill="#fffcfc" font-family="'DINCondensed-Bold', 'DIN Condensed'" font-size="36px" font-stretch="condensed" font-weight="700">N</text></g><g transform="matrix(.83009 .55762 -.55762 .83009 581.81 -98.468)"><text x="452.488px" y="905.502px" fill="#fffcfc" font-family="'DINCondensed-Bold', 'DIN Condensed'" font-size="36px" font-stretch="condensed" font-weight="700">I</text></g><g transform="matrix(.78165 .62372 -.62372 .78165 667.44 -87.515)"><text x="458.711px" y="909.51px" fill="#fffcfc" font-family="'DINCondensed-Bold', 'DIN Condensed'" font-size="36px" font-stretch="condensed" font-weight="700">E</text></g></g><path d="m1086.9 804.55c0.137-155.56-126.77-282.46-282.38-282.46v36.523c135.32 0.2 245.97 110.55 245.97 245.9l36.402 0.042z" fill="#1b1918"/><text x="978.217px" y="1201.57px" font-family="'DINCondensed-Bold', 'DIN Condensed'" font-size="525px" font-stretch="condensed" font-weight="700">SVEHLA</text><text x="961.091px" y="1694.3px" font-family="'DINCondensed-Bold', 'DIN Condensed'" font-size="525px" font-stretch="condensed" font-weight="700">BLAŠK<tspan x="2023.17px " y="1694.3px ">O</tspan></text><rect x="1806.7" y="1229.7" width="418.04" height="42.52"/><rect x="986.29" y="1229.7" width="603.02" height="42.52"/></svg>
