<?xml version="1.0" encoding="UTF-8" standalone="no"?><!DOCTYPE svg PUBLIC "-//W3C//DTD SVG 1.1//EN" "http://www.w3.org/Graphics/SVG/1.1/DTD/svg11.dtd"><svg width="100%" height="100%" viewBox="0 0 2230 1698" version="1.1" xmlns="http://www.w3.org/2000/svg" xmlns:xlink="http://www.w3.org/1999/xlink" xml:space="preserve" xmlns:serif="http://www.serif.com/" style="fill-rule:evenodd;clip-rule:evenodd;stroke-linejoin:round;stroke-miterlimit:2;"><g><path id="path40" d="M1086.86,804.549c0.087,-155.559 -126.819,-282.464 -282.423,-282.464c-135.145,-0 -248.646,95.731 -276.136,222.852l-66.426,0l-0,119.725l66.487,-0.021c27.545,126.427 140.194,221.724 274.536,222.457l0.26,521.159c-0.677,-39.784 -31.564,-73.704 -72.339,-77.462c-40.637,-3.74 -77.174,23.766 -85.428,62.584c7.133,-39.096 -16.447,-78.383 -55.683,-90.024c-39.111,-11.59 -80.367,8.255 -96.097,44.75c14.859,-36.86 -0.37,-80.022 -36.499,-99.182c-36.015,-19.086 -80.412,-7.789 -103.17,24.817c21.833,-33.307 15.42,-78.592 -16.209,-104.423c-31.528,-25.741 -77.308,-23.333 -105.635,4.061c28.404,-28.529 31.092,-74.189 5.177,-105.691c-25.83,-31.379 -71.192,-37.934 -104.841,-16.55c33.058,-22.382 44.707,-66.631 25.524,-102.579c-19.118,-35.803 -62.303,-51.077 -99.518,-36.613c36.877,-15.323 57.151,-56.4 45.556,-95.412c-11.57,-38.879 -50.82,-62.371 -90.176,-55.61c39.195,-7.914 67.207,-44.221 63.541,-84.742c-3.642,-40.355 -37.493,-71.066 -77.361,-72.052c39.868,-0.985 73.719,-31.696 77.361,-72.054c3.666,-40.52 -24.346,-76.827 -63.541,-84.739c39.356,6.761 78.606,-16.73 90.176,-55.61c11.595,-39.015 -8.679,-80.089 -45.556,-95.416c37.215,14.465 80.4,-0.807 99.518,-36.613c19.183,-35.946 7.534,-80.194 -25.524,-102.572c33.649,21.379 79.011,14.822 104.841,-16.559c25.915,-31.495 23.227,-77.158 -5.177,-105.687c28.327,27.393 74.107,29.802 105.635,4.063c31.629,-25.83 38.042,-71.118 16.209,-104.426c22.758,32.607 67.155,43.906 103.17,24.817c36.129,-19.16 51.358,-62.322 36.499,-99.18c15.73,36.497 56.986,56.339 96.097,44.748c39.236,-11.638 62.816,-50.927 55.683,-90.02c8.254,38.813 44.791,66.321 85.428,62.58c40.775,-3.754 71.662,-37.677 72.339,-77.461c0.677,39.784 31.564,73.707 72.337,77.461c40.637,3.741 77.174,-23.767 85.432,-62.58c-7.136,39.093 16.443,78.382 55.681,90.02c39.112,11.591 80.368,-8.251 96.097,-44.748c-14.857,36.858 0.37,80.02 36.5,99.18c36.016,19.089 80.409,7.79 103.167,-24.817c-21.832,33.308 -15.419,78.596 16.211,104.426c31.527,25.739 77.308,23.33 105.634,-4.063c-28.403,28.529 -31.091,74.192 -5.172,105.687c25.825,31.381 71.184,37.938 104.84,16.559c-33.063,22.378 -44.708,66.626 -25.525,102.572c19.114,35.806 62.3,51.078 99.518,36.613c-36.878,15.327 -57.153,56.401 -45.558,95.416c11.569,38.88 50.819,62.371 90.178,55.61c-39.2,7.912 -67.209,44.219 -63.544,84.739c3.644,40.358 37.493,71.069 77.362,72.054l-483.004,0.379c0,-135.35 110.658,-245.695 245.974,-245.895l0,-36.523c-155.603,-0 -282.512,126.903 -282.426,282.46l-0,-0.001Z" style="fill:#e30016;"/><g transform="matrix(4.16667,0,0,4.16667,-777.364,-3391.64)"><g transform="matrix(0.858912,-0.512123,0.512123,0.858912,-422.032,283.113)"><text x="302.808px" y="907.506px" style="font-family:'DINCondensed-Bold', 'DIN Condensed';font-weight:700;font-stretch:condensed;font-size:36px;fill:#fffcfc;">C</text></g><g transform="matrix(0.911077,-0.412235,0.412235,0.911077,-342.951,210.037)"><text x="315.379px" y="899.961px" style="font-family:'DINCondensed-Bold', 'DIN Condensed';font-weight:700;font-stretch:condensed;font-size:36px;fill:#fffcfc;">N</text></g><g transform="matrix(0.952106,-0.305769,0.305769,0.952106,-257.365,143.69)"><text x="329.992px" y="893.386px" style="font-family:'DINCondensed-Bold', 'DIN Condensed';font-weight:700;font-stretch:condensed;font-size:36px;fill:#fffcfc;">C</text></g><g transform="matrix(0.988251,-0.152838,0.152838,0.988251,-131.502,63.9841)"><text x="350.429px" y="887.339px" style="font-family:'DINCondensed-Bold', 'DIN Condensed';font-weight:700;font-stretch:condensed;font-size:36px;fill:#fffcfc;">O</text></g><g transform="matrix(0.99908,-0.0428838,0.0428838,0.99908,-37.6155,16.4935)"><text x="365.624px" y="884.993px" style="font-family:'DINCondensed-Bold', 'DIN Condensed';font-weight:700;font-stretch:condensed;font-size:36px;fill:#fffcfc;">B</text></g><g transform="matrix(0.99751,0.0705249,-0.0705249,0.99751,63.3135,-24.6637)"><text x="380.937px" y="884.298px" style="font-family:'DINCondensed-Bold', 'DIN Condensed';font-weight:700;font-stretch:condensed;font-size:36px;fill:#fffcfc;">R</text></g><g transform="matrix(0.984868,0.173308,-0.173308,0.984868,159.436,-55.275)"><text x="396.246px" y="885.363px" style="font-family:'DINCondensed-Bold', 'DIN Condensed';font-weight:700;font-stretch:condensed;font-size:36px;fill:#fffcfc;">Á</text></g><g transform="matrix(0.959987,0.280046,-0.280046,0.959987,265.083,-79.488)"><text x="410.702px" y="887.888px" style="font-family:'DINCondensed-Bold', 'DIN Condensed';font-weight:700;font-stretch:condensed;font-size:36px;fill:#fffcfc;">B</text></g><g transform="matrix(0.92447,0.381255,-0.381255,0.92447,372.206,-94.6671)"><text x="425.029px" y="892.062px" style="font-family:'DINCondensed-Bold', 'DIN Condensed';font-weight:700;font-stretch:condensed;font-size:36px;fill:#fffcfc;">A</text></g><g transform="matrix(0.875272,0.483632,-0.483632,0.875272,488.829,-100.171)"><text x="438.619px" y="897.627px" style="font-family:'DINCondensed-Bold', 'DIN Condensed';font-weight:700;font-stretch:condensed;font-size:36px;fill:#fffcfc;">N</text></g><g transform="matrix(0.830093,0.557625,-0.557625,0.830093,581.811,-98.4676)"><text x="452.488px" y="905.502px" style="font-family:'DINCondensed-Bold', 'DIN Condensed';font-weight:700;font-stretch:condensed;font-size:36px;fill:#fffcfc;">I</text></g><g transform="matrix(0.781651,0.623716,-0.623716,0.781651,667.435,-87.515)"><text x="458.711px" y="909.51px" style="font-family:'DINCondensed-Bold', 'DIN Condensed';font-weight:700;font-stretch:condensed;font-size:36px;fill:#fffcfc;">E</text></g></g><path id="path42" d="M1086.91,804.548c0.137,-155.556 -126.773,-282.46 -282.376,-282.46l-0,36.523c135.317,0.2 245.974,110.546 245.974,245.895l36.402,0.042Z" style="fill:#1b1918;"/><g transform="matrix(525,0,0,525,2230.87,1201.57)"></g><text x="978.217px" y="1201.57px" style="font-family:'DINCondensed-Bold', 'DIN Condensed';font-weight:700;font-stretch:condensed;font-size:525px;">SVEHLA</text><g transform="matrix(525,0,0,525,2246.82,1694.3)"></g><text x="961.091px" y="1694.3px" style="font-family:'DINCondensed-Bold', 'DIN Condensed';font-weight:700;font-stretch:condensed;font-size:525px;">BLAŠK<tspan x="2023.17px " y="1694.3px ">O</tspan></text><rect x="1806.73" y="1229.67" width="418.037" height="42.52"/><rect x="986.291" y="1229.67" width="603.017" height="42.52"/></g></svg>